Coordinates
version=1
nRows=10
nColumns=40
inDegrees=yes

Units are S.I. units (second, meters, Newtons, ...)
Angles are in degrees.

endheader
time	pelvis_tilt	pelvis_list	pelvis_rotation	pelvis_tx	pelvis_ty	pelvis_tz	hip_flexion_r	hip_adduction_r	hip_rotation_r	knee_angle_r	knee_angle_r_beta	ankle_angle_r	subtalar_angle_r	mtp_angle_r	hip_flexion_l	hip_adduction_l	hip_rotation_l	knee_angle_l	knee_angle_l_beta	ankle_angle_l	subtalar_angle_l	mtp_angle_l	lumbar_extension	lumbar_bending	lumbar_rotation	arm_flex_r	arm_add_r	arm_rot_r	elbow_flex_r	pro_sup_r	wrist_flex_r	wrist_dev_r	arm_flex_l	arm_add_l	arm_rot_l	elbow_flex_l	pro_sup_l	wrist_flex_l	wrist_dev_l
      1.87000000	     -2.69810515	     -1.45123102	      4.02480940	     -0.14702084	      0.89128814	      1.42529150	     20.63872434	     -3.52661270	    -11.23149487	    -59.38812161	     -1.03651826	      0.40611500	    -15.99029752	     14.26390920	     19.53511679	      1.30010424	     10.21301526	    -29.23669959	     -0.51027667	      8.72693242	     10.13413705	      1.72558094	     -3.30029518	     -1.51590089	     -6.62992340	     -2.62685073	     -7.90390491	    -15.87372779	     25.89437582	     89.95437384	      0.00000000	      0.00000000	      1.87139788	     11.85444832	     17.31132464	     29.79574799	     89.95437384	      0.00000000	      0.00000000
      1.88000000	     -2.67334381	     -1.49081126	      4.14767347	     -0.14178411	      0.89156541	      1.42415488	     21.46471727	     -3.55261531	    -11.50916998	    -59.02678907	     -1.03021182	      1.96163125	    -15.98013122	     19.14985278	     19.07264448	      1.22866731	     10.11708994	    -29.12505524	     -0.50832811	      9.00597158	     10.06403225	      1.87510106	     -3.37037205	     -1.48275952	     -6.73656841	     -2.75289541	     -7.88985339	    -15.96031657	     25.84323946	     89.95437384	      0.00000000	      0.00000000	      2.18275698	     11.91673208	     17.39781388	     30.19164045	     89.95437384	      0.00000000	      0.00000000
      1.89000000	     -2.59356811	     -1.57988906	      4.32680667	     -0.13664549	      0.89186770	      1.42310939	     22.19188466	     -3.51494538	    -11.78935121	    -58.46681231	     -1.02043838	      2.76881289	    -16.33155635	     18.96851557	     18.56136970	      1.25131551	     10.07040773	    -28.99295499	     -0.50602252	      9.32040445	      9.91564722	      1.81380148	     -3.51453226	     -1.40329342	     -6.94820017	     -2.80191880	     -7.85241978	    -16.07915240	     25.77130164	     89.95437384	      0.00000000	      0.00000000	      2.52996656	     12.00659198	     17.43850167	     30.48372353	     89.95437384	      0.00000000	      0.00000000
      1.90000000	     -2.65294926	     -1.60573485	      4.45097772	     -0.13150116	      0.89190148	      1.42206901	     23.02789251	     -3.61119243	    -12.10241150	    -57.73760163	     -1.00771125	      3.11948691	    -16.27099894	     18.72259797	     18.21748788	      1.23942176	     10.20824965	    -28.90441491	     -0.50447721	      9.47435811	      9.75930876	      1.76731729	     -3.48501738	     -1.39155495	     -7.06863196	     -2.94190618	     -7.85276075	    -16.08256667	     25.77224939	     89.95437384	      0.00000000	      0.00000000	      2.82044388	     12.06761053	     17.40117717	     30.83635356	     89.95437384	      0.00000000	      0.00000000
      1.91000000	     -2.61688379	     -1.68020425	      4.58033786	     -0.12635807	      0.89212896	      1.42121775	     23.72148434	     -3.55169219	    -12.30557316	    -56.86279574	     -0.99244301	      3.58640285	    -16.37830467	     18.57205380	     17.73698160	      1.26112718	     10.16444334	    -28.77113759	     -0.50215108	      9.78620502	      9.57718859	      1.69230715	     -3.57355828	     -1.33292980	     -7.20687159	     -2.97878277	     -7.81448761	    -16.15685913	     25.68798072	     89.95437384	      0.00000000	      0.00000000	      3.13166936	     12.14128812	     17.38698478	     31.19944522	     89.95437384	      0.00000000	      0.00000000
      1.92000000	     -2.29163177	     -1.90603611	      4.86103131	     -0.12105435	      0.89275663	      1.42020005	     23.88013584	     -3.30633072	    -12.69560117	    -55.60037200	     -0.97040956	      4.00456734	    -16.61267568	     18.86637603	     16.94463941	      1.44768156	      9.99375077	    -28.61978402	     -0.49950946	     10.15444267	      9.25294731	      1.50348040	     -3.98713327	     -1.05824466	     -7.46231688	     -2.95814973	     -7.77691688	    -16.40771011	     25.60280172	     89.95437384	      0.00000000	      0.00000000	      3.42789426	     12.18687253	     17.35102736	     31.74685304	     89.95437384	      0.00000000	      0.00000000
      1.93000000	     -2.46506760	     -1.85157050	      4.90566575	     -0.11596648	      0.89252896	      1.41932133	     24.74366804	     -3.47686308	    -12.95494811	    -54.54214790	     -0.95194006	      4.34197621	    -16.42227825	     18.62317026	     16.70639426	      1.35761867	     10.21131610	    -28.53423798	     -0.49801640	     10.33439116	      9.09335774	      1.44879093	     -3.83103085	     -1.13139299	     -7.49247950	     -3.10606627	     -7.78064126	    -16.36320949	     25.64574182	     89.95437384	      0.00000000	      0.00000000	      3.69844215	     12.22651401	     17.26790078	     32.16927062	     89.95437384	      0.00000000	      0.00000000
      1.94000000	     -2.66670462	     -1.75514025	      4.94594632	     -0.11111249	      0.89219849	      1.41842588	     25.54755501	     -3.61904636	    -13.06962844	    -53.25694469	     -0.92950903	      4.77610667	    -16.26809083	     18.37493157	     16.51850637	      1.19324852	     10.29325903	    -28.47100059	     -0.49691270	     10.54635662	      8.92332164	      1.38637878	     -3.68613813	     -1.24131997	     -7.53721027	     -3.19372015	     -7.78386903	    -16.33268664	     25.69296348	     89.95437384	      0.00000000	      0.00000000	      3.97514646	     12.27572671	     17.14782643	     32.65339143	     89.95437384	      0.00000000	      0.00000000
      1.95000000	     -2.46387630	     -2.07218121	      5.13123615	     -0.10571891	      0.89253819	      1.41801805	     25.77419648	     -3.16430087	    -13.25129179	    -51.72593102	     -0.90278781	      5.46943380	    -16.31626565	     18.38283494	     15.86634401	      1.49060547	      9.91561494	    -28.35000216	     -0.49480088	     11.09680237	      8.80343010	      1.24703128	     -3.92970181	     -0.90659976	     -7.77334406	     -3.10864972	     -7.71921663	    -16.49139901	     25.53963205	     89.95437384	      0.00000000	      0.00000000	      4.07683887	     12.42627107	     16.86007376	     33.42027339	     89.95437384	      0.00000000	      0.00000000
      1.96000000	     -2.68620626	     -1.89130167	      5.15655422	     -0.10073966	      0.89208486	      1.41711715	     26.52594945	     -3.46847172	    -13.49222607	    -50.30613198	     -0.87800764	      5.59608641	    -15.97673736	     18.13414411	     15.73453881	      1.25753364	     10.15019371	    -28.36301474	     -0.49502799	     11.18354140	      8.63674926	      1.19346232	     -3.75678062	     -1.10240655	     -7.75541575	     -3.28235891	     -7.73232319	    -16.46438301	     25.68778685	     89.95437384	      0.00000000	      0.00000000	      4.34036294	     12.43465918	     16.74918072	     34.00882198	     89.95437384	      0.00000000	      0.00000000
